<?xml version="1.0" standalone="no"?>
<!DOCTYPE svg PUBLIC "-//W3C//DTD SVG 20010904//EN"
 "http://www.w3.org/TR/2001/REC-SVG-20010904/DTD/svg10.dtd">
<svg version="1.0" xmlns="http://www.w3.org/2000/svg"
 width="500.000000pt" height="500.000000pt" viewBox="0 0 500.000000 500.000000"
 preserveAspectRatio="xMidYMid meet">
<metadata>
Created by potrace 1.14, written by Peter Selinger 2001-2017
</metadata>
<g transform="translate(0.000000,500.000000) scale(0.100000,-0.100000)"
fill="#000000" stroke="none">
<path d="M2765 3974 c-81 -16 -116 -28 -188 -63 -115 -56 -234 -168 -289 -271
-51 -95 -46 -92 -92 -56 -48 36 -168 97 -241 121 -145 48 -352 55 -499 15
-380 -102 -640 -418 -671 -815 -4 -44 -10 -83 -13 -86 -4 -4 -37 -9 -74 -12
-37 -3 -76 -11 -88 -17 -11 -6 -20 -9 -20 -6 0 10 -140 -53 -193 -87 -30 -20
-75 -55 -99 -79 -43 -43 -98 -107 -98 -114 0 -2 -13 -25 -28 -51 -56 -96 -83
-193 -87 -313 -7 -202 61 -382 198 -521 71 -71 127 -111 213 -150 119 -54 167
-59 648 -61 l440 -3 7 -27 c31 -116 160 -267 272 -318 34 -15 87 -31 117 -36
67 -9 1849 -12 1940 -2 197 20 366 156 428 343 27 81 27 225 1 310 -30 99
-107 204 -189 258 -13 10 -20 17 -15 18 6 0 71 1 145 3 74 2 158 9 185 16 192
49 350 196 422 395 13 38 18 80 18 175 0 114 -2 131 -29 198 -37 95 -83 164
-158 234 -59 55 -171 119 -233 132 -74 16 -94 18 -150 20 -33 1 -76 -1 -95 -5
-40 -9 -51 2 -41 40 9 29 6 151 -3 194 -32 142 -145 282 -279 345 -138 66
-308 66 -434 0 -21 -10 -29 -5 -101 68 -43 43 -106 96 -140 117 -141 87 -329
122 -487 91z"/>
</g>
</svg>
